<svg width="661" height="493" viewBox="0 0 661 493" fill="none" xmlns="http://www.w3.org/2000/svg">
<g clip-path="url(#clip0_21_965)">
<path d="M177.066 0.911023C154.391 4.45399 135.437 11.6285 118.165 23.1432C90.8837 41.3894 69.0059 70.2646 61.2999 98.2541C59.3513 105.606 58.9084 108.883 58.9084 118.538C58.8199 128.458 59.0856 130.938 60.9456 136.695C65.1972 149.627 74.1432 159.282 88.3151 166.013C94.0724 168.759 95.5781 169.911 95.2239 171.062C93.0981 177.617 84.7721 209.592 84.3292 212.515C83.8863 215.704 84.1521 216.324 86.2778 218.006C89.6437 220.664 93.2752 220.487 95.4896 217.652C96.4639 216.412 98.1468 211.541 99.2097 206.846C100.715 199.76 105.233 182.488 107.89 173.011C108.51 170.885 108.953 170.796 116.482 170.265C126.136 169.556 132.425 167.342 139.157 161.939C152.62 151.399 159.794 135.367 162.097 111.097C163.426 96.3055 161.566 68.936 156.694 32.6206C155.72 25.2689 154.923 19.2459 154.923 19.1573C154.923 19.0687 157.049 18.3602 159.617 17.6516C179.192 11.9828 207.359 12.1599 224.276 17.9173C234.817 21.5488 241.814 25.9775 250.14 34.3921C259.263 43.5152 263.426 50.6012 268.652 65.7473C270.424 70.7961 273.081 77.1734 274.498 79.9192C281.761 93.5597 293.719 102.771 309.485 107.023L315.154 108.617L312.851 110.389C302.488 118.538 310.636 139.353 325.163 141.655C327.111 142.01 328.883 142.895 329.237 143.604C330.034 145.818 327.731 152.727 323.834 159.636C316.659 172.302 304.79 182.222 291.061 186.917C284.153 189.308 283.001 189.397 267.855 189.397C249.697 189.397 243.586 188.423 225.959 182.577C214.002 178.591 211.522 178.679 209.839 183.197C208.422 187.005 210.105 189.663 215.773 192.32L220.911 194.711L220.999 208.44C220.999 231.824 223.391 239.441 230.565 239.441C232.957 239.441 236.5 237.67 236.411 236.518C236.411 236.43 235.791 231.558 235.083 225.712C233.577 214.021 233.311 199.583 234.551 199.583C234.994 199.583 238.626 200.292 242.7 201.089C253.506 203.303 283.267 203.303 291.327 201.089C311.876 195.509 329.326 180.894 339.6 160.61C344.295 151.399 346.42 143.781 348.015 131.027C349.255 120.752 347.926 115.703 342.169 109.326C336.766 103.391 332.868 101.177 320.379 97.3684C314.622 95.5969 307.271 92.7625 304.082 91.0796C291.593 84.5251 287.341 79.0335 281.053 61.0529C274.409 41.9209 268.475 32.0892 257.669 22.2574C241.637 7.55409 219.139 0.113863 191.77 0.379586C184.861 0.46816 178.306 0.733874 177.066 0.911023Z" fill="#F4EFEA "/>
<path d="M351.912 10.9199C349.078 12.0714 346.332 16.0572 345.003 21.0174C341.814 32.9749 333.843 83.8165 333.843 92.5854C333.843 93.6483 335.791 95.154 339.334 96.9255C346.155 100.38 346.597 99.937 347.483 89.5738C348.812 73.3647 356.252 28.6348 357.669 28.6348C357.935 28.6348 366.881 38.0236 377.598 49.4497C388.227 60.8758 397.616 70.2646 398.413 70.2646C399.299 70.2646 403.462 69.0246 407.802 67.6074C419.937 63.533 429.326 61.9387 442.346 62.0273C455.721 62.1158 462.718 63.0901 475.739 66.8988C481.23 68.4932 486.013 69.3789 487.253 69.1132C488.405 68.7589 497.528 59.6357 508.245 48.1211C521 34.3921 527.466 28.0147 527.909 28.8119C528.883 30.7605 533.843 56.7128 535.349 68.0503C536.146 73.8962 536.943 83.2851 537.298 88.8652C537.741 98.1655 538.095 99.7599 541.106 106.58C545.801 117.12 547.307 124.826 547.307 137.492V148.121L542.701 148.564C540.132 148.83 534.463 149.273 530.035 149.539C525.695 149.893 521.62 150.513 521 151.044C519.583 152.196 519.494 154.764 520.734 157.156C521.62 158.662 522.772 158.839 534.021 158.839H546.332L544.472 164.153C543.498 167.076 542.347 169.468 541.904 169.468C541.372 169.468 537.563 168.493 533.312 167.342C515.243 162.293 495.314 159.016 492.302 160.699C490.353 161.673 489.999 165.748 491.771 167.873C492.479 168.759 496.288 169.733 503.02 170.708C513.206 172.214 534.641 177.085 536.678 178.325C537.475 178.768 537.121 179.92 535.349 182.665C534.021 184.614 532.692 186.297 532.338 186.297C532.072 186.297 524.809 183.905 516.306 180.982C498.857 174.959 495.845 174.605 493.631 177.882C492.302 179.92 492.302 180.274 493.631 182.311C494.516 183.551 496.554 184.88 498.768 185.411C505.5 187.271 524.72 193.56 525.429 194.18C527.289 195.951 514.091 207.732 502.754 214.641C465.818 236.961 409.662 233.507 373.79 206.58C367.324 201.797 357.935 192.851 358.732 192.32C358.909 192.143 366.261 189.663 375.03 186.828C383.799 183.994 391.682 181.071 392.567 180.274C394.339 178.768 394.605 174.782 393.01 173.188C391.15 171.328 387.784 172.036 370.247 177.882C356.872 182.4 352.798 183.374 351.823 182.577C351.203 182.045 349.343 179.477 347.749 176.819C346.243 174.251 344.649 172.125 344.206 172.125C343.852 172.125 341.992 174.517 340.043 177.528C335.88 183.905 335.969 184.26 343.409 194.091C357.935 213.578 377.687 228.015 399.742 235.367C414.977 240.416 423.037 241.567 443.675 241.656C464.933 241.656 470.601 240.859 486.988 235.367C510.814 227.484 530.655 212.426 544.472 191.611C547.218 187.448 549.521 183.994 549.61 183.817C549.61 183.728 553.861 185.5 559.087 187.714C569.184 192.143 572.107 192.32 573.967 188.866C574.499 187.891 574.676 186.031 574.322 184.791C573.879 182.754 569.184 180.097 556.873 174.959L554.57 173.985L556.695 167.962C557.847 164.685 558.821 161.053 558.821 160.079C558.821 157.865 562.01 157.067 571.31 157.067C577.776 157.067 580.433 155.384 579.902 151.664C579.459 148.21 576.182 147.236 567.944 147.856L560.681 148.387L560.593 137.492C560.593 124.029 558.378 112.692 554.038 103.214C551.204 96.9255 550.85 95.3312 549.964 83.1079C548.37 61.5844 541.904 21.9917 538.981 16.4115C537.121 12.78 533.4 10.0342 530.478 10.0342C529.149 10.0342 526.492 11.1856 524.632 12.6028C521.089 15.1715 503.817 32.6206 490.619 46.8811L483.09 55.0299L473.081 52.4612C450.495 46.7039 427.111 47.5011 404.171 54.7642C402.576 55.2956 399.122 52.0184 382.116 34.0378C360.061 10.7428 357.315 8.70557 351.912 10.9199Z" fill="#F4EFEA "/>
<path d="M227.111 80.9821C216.925 84.0822 214.445 98.697 223.125 104.809C232.248 111.274 244.383 104.986 244.383 93.8254C244.383 87.9795 241.991 83.9936 237.031 81.7793C232.957 79.9192 231.097 79.7421 227.111 80.9821Z" fill="#F4EFEA "/>
<path d="M380.256 122.966C378.573 125.535 379.016 128.015 381.85 132.267C387.607 140.681 398.148 143.427 407.625 138.91C415.951 135.012 420.38 127.661 416.571 123.941C414.445 121.815 412.851 122.169 408.511 126.066C406.296 128.015 403.196 129.787 401.513 130.141C396.022 131.204 393.985 130.052 387.519 122.435C385.482 120.043 382.027 120.309 380.256 122.966Z" fill="#F4EFEA "/>
<path d="M496.111 124.738C488.936 131.204 483.09 131.115 475.296 124.649C472.196 122.081 468.033 121.815 466.704 124.206C465.021 127.395 465.818 129.432 470.247 133.418C480.079 142.275 492.656 142.364 501.779 133.595C504.968 130.584 505.677 129.344 505.677 126.686C505.677 124.383 505.145 123.232 503.994 122.523C501.159 121.018 499.654 121.461 496.111 124.738Z" fill="#F4EFEA "/>
<path d="M430.212 149.893C427.554 152.019 426.314 156.536 427.2 160.167C427.554 161.408 429.946 164.862 432.603 167.696C436.412 171.859 437.475 173.631 437.475 175.934C437.475 181.248 432.692 185.411 426.403 185.411C422.594 185.411 420.291 184.348 416.483 180.717C413.914 178.325 413.205 178.059 411.168 178.857C409.219 179.477 408.599 180.362 408.422 182.665C408.157 185.057 408.688 186.297 411.08 188.688C419.671 197.812 433.312 198.343 441.372 189.928L443.852 187.36L447.749 190.371C455.544 196.217 463.958 196.306 472.639 190.46C478.042 186.828 479.813 183.728 478.396 180.628C477.067 177.617 473.967 177.617 469.45 180.54C462.63 185.057 456.252 185.057 452.532 180.362C449.698 176.642 450.229 172.745 454.215 168.316C458.201 163.888 460.504 159.725 460.504 156.713C460.504 150.513 457.138 148.919 443.232 148.387C433.4 148.033 432.426 148.21 430.212 149.893Z" fill="#F4EFEA "/>
<path d="M356.075 154.322C353.772 156.625 353.683 159.016 355.809 160.876C357.403 162.293 383.09 167.696 388.404 167.696C389.999 167.696 391.947 167.076 392.656 166.279C394.516 164.419 394.427 160.876 392.567 159.902C390.707 158.927 376.89 155.827 368.387 154.41C365.198 153.879 361.566 153.259 360.238 152.993C358.555 152.639 357.315 153.082 356.075 154.322Z" fill="#F4EFEA "/>
<path d="M340.043 261.319C339.334 261.585 338.006 262.382 337.209 263.179C335.703 264.419 335.614 269.025 335.614 335.987C335.614 404.987 335.703 407.644 337.297 409.592C338.892 411.541 339.777 411.718 349.166 411.984C359.175 412.338 359.441 412.338 361.655 410.124L363.958 407.821V336.607C363.958 267.785 363.869 265.216 362.275 263.268C360.681 261.319 359.884 261.142 350.938 260.965C345.712 260.876 340.752 260.965 340.043 261.319Z" fill="#F4EFEA "/>
<path d="M393.63 261.939C390.353 263.445 386.544 267.431 385.304 270.708C382.824 277.263 385.747 285.057 391.947 288.689C395.313 290.726 396.73 290.992 401.248 290.637C407.094 290.194 410.105 288.512 413.382 283.729C416.128 279.654 416.128 271.86 413.294 267.697C409.219 261.585 400.273 259.016 393.63 261.939Z" fill="#F4EFEA "/>
<path d="M565.021 261.851L562.807 263.002L562.541 336.164C562.364 403.304 562.453 409.415 563.781 410.478C565.73 412.073 585.305 412.781 587.962 411.275C589.822 410.39 589.822 409.77 589.822 385.146C589.822 371.24 590.088 359.902 590.354 359.902C590.708 359.902 591.417 360.434 591.948 361.142C621.532 399.141 630.301 409.858 632.958 410.921C635.881 412.161 655.544 412.693 659.53 411.63C662.187 410.921 662.896 408.175 661.124 405.43C659.264 402.507 637.121 373.986 626.403 360.522L618.077 350.159L638.981 327.927C652.444 313.667 659.796 305.252 659.619 304.278C659.353 302.949 657.67 302.772 645.713 302.506C635.172 302.329 631.629 302.595 630.212 303.481C629.149 304.189 619.76 314.198 609.309 325.713L590.265 346.705L589.822 304.809L589.379 263.002L587.165 261.851C584.242 260.345 567.944 260.345 565.021 261.851Z" fill="#F4EFEA "/>
<path d="M13.7356 266.102L11.4326 267.874V337.759C11.4326 405.164 11.5212 407.644 13.1155 409.592C14.7099 411.63 15.3299 411.718 26.0474 411.718C41.725 411.718 40.6621 413.667 40.6621 384.615V361.674H57.7569C69.0944 361.674 76.8004 361.231 80.6977 360.345C108.421 354.499 124.099 327.13 116.482 298.166C113.293 286.031 105.056 276.111 93.4523 270.354C82.6463 265.039 76.9775 264.331 44.1165 264.242C17.1014 264.242 16.0385 264.331 13.7356 266.102ZM75.2061 291.789C86.9864 297.28 91.6809 307.466 88.4036 320.487C87.075 325.801 81.7606 331.647 75.9146 334.304C71.6631 336.164 69.7145 336.43 55.9855 336.696L40.6621 337.05V312.958V288.866L55.5426 289.22C69.183 289.486 70.6888 289.663 75.2061 291.789Z" fill="#F4EFEA "/>
<path d="M258.289 276.465C257.049 277.794 256.783 280.186 256.783 290.194V302.329H248.369C237.031 302.329 236.411 302.949 236.411 313.755C236.411 324.738 236.943 325.27 247.926 325.801L256.34 326.244L256.783 358.839L257.226 391.346L260.149 397.281C263.515 404.189 268.475 408.707 275.561 411.453C286.101 415.616 309.839 414.11 314.888 408.972C316.837 407.112 317.014 406.138 317.014 398.609C317.014 391.346 316.748 390.106 315.242 388.689C313.559 387.095 313.028 387.095 307.891 388.246C296.199 390.992 289.999 389.398 286.721 382.843C285.304 380.186 285.127 376.731 285.127 352.551V325.358L293.807 325.27C309.751 325.181 314.711 324.65 315.951 322.967C317.545 320.664 317.368 306.758 315.596 304.278C314.268 302.418 313.736 302.329 299.653 302.329H285.127V290.549C285.127 274.34 285.57 274.871 271.044 274.871C261.212 274.871 259.529 275.048 258.289 276.465Z" fill="#F4EFEA "/>
<path d="M168.209 300.912C160.237 302.595 155.454 304.632 148.545 309.149C138.005 316.058 130.476 326.687 126.933 339.53C124.719 347.591 124.719 367.785 126.933 375.846C131.894 393.826 146.685 407.998 165.552 412.693C173.789 414.818 188.847 414.553 197.704 412.25C210.016 409.061 224.896 399.584 224.896 394.978C224.896 391.08 216.128 381.16 212.585 381.16C211.433 381.16 208.333 382.577 205.676 384.349C198.058 389.398 192.035 391.169 182.824 391.169C176.535 391.169 173.966 390.815 170.423 389.22C162.363 385.677 155.72 377.263 154.391 368.848L153.771 365.217H191.415C219.405 365.217 229.237 364.951 230.034 364.154C231.717 362.471 231.362 347.236 229.414 339.885C224.719 321.727 211.699 307.201 195.756 302.241C188.227 299.938 175.738 299.318 168.209 300.912ZM189.555 323.676C196.376 326.598 202.044 334.039 203.993 342.365L204.524 344.845H179.281H154.037L154.569 342.365C154.923 341.036 155.72 338.467 156.34 336.607C160.946 323.321 175.561 317.652 189.555 323.676Z" fill="#F4EFEA "/>
<path d="M484.862 301.798C478.307 303.481 474.233 305.429 468.121 309.769L462.718 313.578L462.541 309.149C462.364 302.772 461.478 302.329 448.989 302.329C440.043 302.329 438.449 302.595 437.209 303.923C435.88 305.429 435.703 310.389 435.703 356.979C435.703 408.087 435.703 408.352 437.563 410.035C439.157 411.453 440.84 411.718 450.052 411.718C465.287 411.718 464.047 415.084 464.047 375.049C464.047 338.024 464.047 338.379 471.487 331.824C476.713 327.218 482.116 325.358 490.088 325.358C497.705 325.358 504.26 328.104 507.714 332.621C512.231 338.556 512.763 343.162 512.763 377.794V409.504L514.977 410.921C516.66 412.073 519.14 412.25 527.82 411.984C537.298 411.718 538.715 411.541 539.866 410.035C540.929 408.618 541.106 401.975 541.106 372.214C541.106 349.008 540.752 334.393 540.132 331.381C537.209 317.387 527.289 306.492 513.56 302.241C507.183 300.292 491.948 300.026 484.862 301.798Z" fill="#F4EFEA "/>
<path d="M386.899 303.835C385.216 305.784 384.596 404.987 386.19 408.795C387.43 411.895 390.176 412.427 401.868 411.984C407.625 411.807 411.168 411.275 412.054 410.478C413.382 409.415 413.56 404.544 413.56 356.891C413.56 317.298 413.294 304.189 412.497 303.392C411.788 302.683 407.625 302.329 399.742 302.329C389.999 302.329 387.873 302.595 386.899 303.835Z" fill="#F4EFEA "/>
<path d="M10.5469 453.171C3.01808 457.157 -0.967762 466.457 0.803723 475.935C1.86661 481.692 3.54952 484.792 7.35821 488.158C15.9499 495.687 30.8304 493.472 35.7905 483.818C37.1192 481.338 37.1192 481.338 33.8419 480.452C30.7418 479.566 30.2989 479.655 28.7932 481.692C25.3388 486.475 19.4043 487.804 14.1784 484.969C10.0154 482.666 7.88966 478.415 7.88966 472.126C7.88966 462.383 11.8755 457.334 19.5815 457.334C23.4787 457.334 24.3645 457.688 27.1103 460.434C30.1218 463.446 30.4761 463.534 33.2219 462.648C36.6763 461.497 36.6763 461.497 34.8162 458.308C32.159 453.88 27.7303 451.665 20.8215 451.311C15.507 451.045 13.9127 451.311 10.5469 453.171Z" fill="#F4EFEA "/>
<path d="M176.181 457.688C176.181 461.32 176.004 461.674 173.789 461.94C171.841 462.117 171.309 462.648 171.309 464.42C171.309 466.191 171.841 466.723 173.789 466.9L176.181 467.166V476.643C176.181 487.626 177.066 489.929 181.672 491.701C186.455 493.561 189.467 492.587 189.467 489.221C189.467 486.918 189.113 486.563 186.987 486.563C182.912 486.563 182.381 485.235 182.381 475.757V467.077H185.924C189.29 467.077 189.467 466.9 189.467 464.42C189.467 461.94 189.29 461.763 185.924 461.763H182.381V457.777C182.381 453.791 182.381 453.791 179.281 453.791C176.181 453.791 176.181 453.791 176.181 457.688Z" fill="#F4EFEA "/>
<path d="M361.301 457.777C361.301 461.586 361.212 461.763 358.644 461.763C356.252 461.763 355.986 462.028 355.986 464.42C355.986 466.811 356.252 467.077 358.644 467.077H361.301V477.175C361.301 488.689 362.364 491.258 367.944 492.232C372.638 493.118 374.587 492.232 374.587 489.132C374.587 486.918 374.233 486.563 372.107 486.563C368.032 486.563 367.501 485.235 367.501 475.757V467.077H371.044C374.41 467.077 374.587 466.9 374.587 464.42C374.587 461.94 374.41 461.763 371.044 461.763H367.501V457.777C367.501 453.791 367.501 453.791 364.401 453.791C361.301 453.791 361.301 453.791 361.301 457.777Z" fill="#F4EFEA "/>
<path d="M615.863 455.031C615.509 455.828 615.509 457.688 615.686 459.105C616.04 461.497 615.863 461.763 613.56 461.763C611.434 461.763 611.08 462.117 611.08 464.42C611.08 466.634 611.434 467.077 613.294 467.077H615.509V475.935C615.509 487.006 616.749 490.372 621.178 491.878C622.949 492.409 625.606 492.675 627.023 492.321C629.238 491.878 629.681 491.347 629.681 489.132C629.681 486.741 629.415 486.563 626.581 486.563C622.506 486.563 621.709 484.526 621.709 474.517V467.077H625.695C629.504 467.077 629.681 466.989 629.681 464.42C629.681 461.851 629.504 461.763 625.606 461.763H621.532L621.886 457.954C622.152 454.322 622.063 454.234 619.229 453.968C617.28 453.791 616.217 454.145 615.863 455.031Z" fill="#F4EFEA "/>
<path d="M50.6711 461.851C43.8508 463.888 39.5107 472.834 41.4593 481.16C42.6108 486.475 44.7366 489.132 49.2539 491.169C56.2512 494.269 62.9829 492.498 67.5887 486.209C70.3345 482.666 70.2459 470.974 67.5887 467.343C63.8686 462.471 56.6055 459.991 50.6711 461.851ZM61.2114 468.849C63.16 471.24 64.0458 475.935 63.3372 479.832C62.54 484.172 60.2371 486.563 56.4284 487.184C53.594 487.626 52.7968 487.272 50.4053 484.969C48.0138 482.578 47.7481 481.692 47.7481 476.82C47.7481 471.949 48.0138 471.063 50.4053 468.671C52.7968 466.369 53.594 466.014 56.4284 466.457C58.1999 466.811 60.4142 467.874 61.2114 468.849Z" fill="#F4EFEA "/>
<path d="M88.1379 461.763C86.8093 462.206 84.8606 463.268 83.9749 464.066C82.3806 465.483 82.292 465.483 82.292 463.711C82.292 462.117 81.7605 461.763 79.1919 461.763H76.0918V476.82V491.878H79.1033H82.1148L82.3806 481.249C82.7349 471.772 82.912 470.443 84.6835 468.76C87.2521 466.191 91.5037 466.191 94.0724 468.76C95.8439 470.443 96.021 471.772 96.2867 481.249L96.641 491.878H99.6525H102.664V481.249C102.664 469.557 101.601 465.483 98.0582 463.268C95.2238 461.497 91.238 460.877 88.1379 461.763Z" fill="#F4EFEA "/>
<path d="M117.456 462.117C113.027 463.711 111.521 465.129 109.661 469.292C106.738 475.669 107.624 483.109 111.876 487.892C117.102 493.738 127.022 494.181 132.425 488.778C135.082 486.121 135.082 485.501 132.336 484.172C130.388 483.286 129.768 483.463 127.908 485.323C125.605 487.626 121.53 488.158 118.519 486.564C116.836 485.678 114.179 481.338 114.179 479.478C114.179 478.946 117.987 478.592 124.808 478.592H135.437V475.226C135.348 465.306 126.579 458.84 117.456 462.117ZM127.376 468.494C128.439 469.823 129.236 471.594 129.236 472.48C129.236 473.986 128.439 474.163 121.708 474.163C113.204 474.163 112.584 473.543 116.482 468.937C119.582 465.217 124.63 465.04 127.376 468.494Z" fill="#F4EFEA "/>
<path d="M150.228 462.117C143.497 464.597 140.751 469.026 140.751 477.44C140.751 484.526 143.408 489.044 148.811 491.347C154.657 493.738 160.414 492.764 164.4 488.778C167.943 485.235 168.12 483.375 164.932 482.755C163.072 482.401 161.743 482.932 159.529 484.881C156.429 487.626 155.366 487.892 151.911 486.564C149.077 485.501 146.951 481.426 146.951 476.82C146.951 467.874 154.48 463.003 159.883 468.494C161.743 470.266 162.717 470.62 164.755 470.177C166.172 469.823 167.323 469.292 167.323 468.849C167.323 466.989 162.452 462.648 159.529 461.763C155.366 460.611 154.391 460.7 150.228 462.117Z" fill="#F4EFEA "/>
<path d="M203.639 461.763C201.956 462.206 199.387 463.8 197.97 465.483L195.313 468.406L198.147 469.203C200.539 469.912 201.336 469.734 203.019 468.14C207.004 464.42 214.976 466.634 214.09 471.24C213.825 472.923 212.319 473.454 204.259 475.049C198.059 476.289 194.87 478.857 194.25 483.109C192.921 491.169 205.764 496.129 212.319 490.106C214.622 487.892 215.33 487.892 214.976 489.841C214.799 491.081 215.419 491.524 217.633 491.701L220.468 491.966V481.249C220.468 469.557 219.405 465.483 215.862 463.18C213.205 461.408 207.536 460.788 203.639 461.763ZM214.268 480.363C214.268 484.349 210.813 487.449 206.473 487.449C202.664 487.449 200.981 486.209 200.981 483.286C200.981 481.072 203.373 479.478 208.067 478.503C213.913 477.352 214.268 477.529 214.268 480.363Z" fill="#F4EFEA "/>
<path d="M251.203 462.117C246.774 463.8 245.269 465.128 243.409 469.291C237.651 481.869 246.42 494.712 259.175 492.321C262.363 491.789 269.184 486.121 269.184 484.083C269.184 483.641 267.944 483.02 266.438 482.666C264.312 482.223 263.338 482.578 261.832 484.349C260.769 485.589 258.643 486.829 257.138 487.095C254.835 487.538 253.772 487.095 251.38 484.969C248.546 482.489 248.369 481.869 248.369 476.82C248.369 471.772 248.546 471.152 251.292 468.76C254.923 465.483 257.935 465.483 261.123 468.671C263.249 470.797 263.958 470.974 266.349 470.266C269.095 469.557 269.095 469.469 267.766 466.989C265.375 462.294 257.315 459.903 251.203 462.117Z" fill="#F4EFEA "/>
<path d="M283.887 461.763C277.952 463.534 274.498 469.292 274.498 477.263C274.498 484.083 276.89 488.512 281.85 490.904C286.544 493.207 290.619 493.207 295.49 491.081C300.273 488.866 302.842 484.083 302.842 477.263C302.842 468.849 299.476 463.711 292.656 461.851C288.581 460.788 287.43 460.7 283.887 461.763ZM293.719 468.317C296.022 470.266 296.199 470.974 296.199 476.732C296.199 484.438 294.339 487.006 288.67 487.006C283.621 487.006 281.407 484.438 280.875 478.326C280.078 468.406 287.253 462.826 293.719 468.317Z" fill="#F4EFEA "/>
<path d="M321.708 461.497C320.645 461.674 318.785 462.826 317.545 463.977L315.242 466.103V463.977C315.242 462.117 314.799 461.763 312.585 461.763H309.928V476.82V491.878H312.939H315.951L316.305 480.806C316.571 468.229 317.279 466.9 322.86 466.9C328.528 466.9 329.414 468.849 329.414 481.338V491.878H332.514H335.614V480.806C335.614 469.026 334.551 464.42 331.451 462.826C329.325 461.674 324.188 460.966 321.708 461.497Z" fill="#F4EFEA "/>
<path d="M441.903 461.851C440.752 462.383 438.98 463.357 438.183 464.154C436.677 465.483 436.589 465.483 436.589 463.711C436.589 462.117 436.057 461.763 433.489 461.763H430.389V476.82V491.878H433.754H437.032V481.869C437.12 471.152 437.917 468.406 441.549 467.077C444.561 465.926 447.838 467.609 448.989 470.886C449.432 472.303 449.875 477.706 449.875 482.666V491.878H452.975H456.075V481.603C456.075 476.023 456.518 470.62 457.049 469.646C459.087 465.66 466.084 466.191 467.678 470.354C468.121 471.506 468.476 476.909 468.476 482.223V491.878H471.664H474.853L474.499 480.009C474.233 466.369 473.17 463.977 467.147 461.94C462.895 460.523 459.53 461.231 456.075 464.154C454.569 465.394 453.418 465.926 453.418 465.394C453.418 462.826 445.535 460.345 441.903 461.851Z" fill="#F4EFEA "/>
<path d="M489.29 462.206C487.342 462.914 484.862 464.597 483.799 465.926L481.762 468.406L484.507 469.114C486.722 469.734 487.696 469.469 489.202 468.051C492.922 464.597 500.362 466.457 500.362 470.797C500.362 472.923 498.591 473.897 493.542 474.429C486.899 475.226 482.647 477.44 481.23 480.983C479.724 484.615 480.344 487.538 483.267 490.284C486.368 493.207 494.605 493.207 498.502 490.284C501.159 488.335 501.248 488.335 501.248 490.106C501.248 491.524 501.868 491.878 503.905 491.878H506.562V480.54C506.562 473.366 506.12 468.494 505.411 467.166C502.842 462.117 495.668 459.814 489.29 462.206ZM500.362 480.363C500.362 484.349 496.908 487.449 492.568 487.449C488.759 487.449 487.076 486.209 487.076 483.286C487.076 480.983 489.556 479.389 494.605 478.503C500.362 477.529 500.362 477.529 500.362 480.363Z" fill="#F4EFEA "/>
<path d="M521.62 461.763C517.457 462.737 514.534 466.28 514.534 470.532C514.534 474.695 517.014 477.175 522.506 478.592C531.186 480.806 532.249 481.338 532.249 483.375C532.249 486.298 530.566 487.449 526.315 487.449C523.303 487.449 522.063 486.918 520.557 485.235C518.609 483.021 514.268 482.223 513.294 483.818C512.94 484.261 513.826 485.943 515.154 487.538C522.683 496.484 538.892 493.295 538.892 482.843C538.892 478.149 535.881 475.58 528.972 474.163C526.137 473.543 523.126 472.746 522.329 472.303C520.469 471.329 520.292 468.76 521.797 467.254C523.48 465.571 529.326 465.926 531.363 467.963C532.603 469.203 533.755 469.557 535.792 469.203C537.209 468.849 538.449 468.317 538.449 467.963C538.449 466.014 534.463 462.737 531.009 461.851C526.58 460.788 526.049 460.788 521.62 461.763Z" fill="#F4EFEA "/>
<path d="M555.013 462.117C548.458 464.508 545.535 469.026 545.535 476.732C545.535 487.449 552.355 493.827 562.187 492.321C565.464 491.878 567.059 490.904 569.716 488.158C573.259 484.438 573.259 483.64 569.273 482.666C567.413 482.223 566.616 482.489 565.996 483.818C563.339 488.689 555.19 487.892 552.975 482.489C548.635 472.214 557.67 461.408 564.667 468.406C566.882 470.709 568.21 471.063 570.69 470.089C575.385 468.317 566.084 460.788 559.264 460.965C558.821 460.965 556.873 461.497 555.013 462.117Z" fill="#F4EFEA "/>
<path d="M587.785 462.117C580.699 464.686 577.865 469.734 578.485 478.68C579.105 486.829 583.711 491.878 591.328 492.498C596.731 492.941 602.754 490.106 605.234 485.766C607.537 481.78 607.626 473.277 605.411 468.671C602.577 462.648 594.428 459.725 587.785 462.117ZM597.882 468.76C600.185 471.063 600.451 472.037 600.451 476.643C600.451 480.54 600.008 482.489 598.68 484.172C595.048 488.778 588.051 487.981 585.836 482.578C581.231 471.683 590.354 461.231 597.882 468.76Z" fill="#F4EFEA "/>
<path d="M643.233 461.851C641.727 462.294 639.335 463.977 638.095 465.483L635.704 468.317L638.538 469.114C640.841 469.734 641.815 469.469 643.321 468.051C647.218 464.42 655.19 466.723 654.304 471.24C654.039 472.923 652.533 473.454 644.473 475.049C637.564 476.466 634.552 479.035 634.552 483.729C634.552 486.298 635.172 487.981 636.678 489.575C640.31 493.472 648.636 493.738 652.533 490.106C654.924 487.892 655.721 487.892 655.101 490.106C654.747 491.612 655.101 491.878 657.67 491.878H660.682L660.593 481.426C660.593 470 659.53 465.837 656.253 463.446C653.507 461.497 647.041 460.7 643.233 461.851ZM654.481 480.363C654.481 484.349 651.027 487.449 646.687 487.449C642.878 487.449 641.195 486.209 641.195 483.286C641.195 480.983 643.675 479.389 648.724 478.503C654.481 477.529 654.481 477.529 654.481 480.363Z" fill="#F4EFEA "/>
<path d="M381.673 472.834C381.673 486.298 382.647 489.486 387.607 491.524C391.593 493.207 396.11 492.675 399.565 490.106L402.045 488.246V490.106C402.045 491.524 402.665 491.878 404.702 491.878H407.359V476.82V461.763H404.259H401.159V472.214C401.159 481.515 400.982 482.932 399.388 484.615C398.236 485.855 396.465 486.563 394.693 486.563C389.025 486.563 387.873 484.083 387.873 471.594V461.763H384.773H381.673V472.834Z" fill="#F4EFEA "/>
</g>
<defs>
<clipPath id="clip0_21_965">
<rect width="661" height="493" fill="white"/>
</clipPath>
</defs>
</svg>
