<svg width="167" height="80" viewBox="0 0 167 80" fill="none" xmlns="http://www.w3.org/2000/svg">
<path d="M37.8116 0.300752C30.5946 1.47037 24.5617 3.83886 19.0644 7.64014C10.3814 13.6637 3.4182 23.1961 0.965564 32.4361C0.345356 34.8631 0.204401 35.945 0.204401 39.1322C0.17621 42.4072 0.26078 43.2259 0.852797 45.1265C2.20598 49.3957 5.0533 52.5829 9.5639 54.8052C11.3963 55.7116 11.8756 56.0918 11.7628 56.4719C11.0862 58.6357 8.43625 69.1915 8.29529 70.1565C8.15434 71.2091 8.23891 71.4138 8.9155 71.9694C9.98677 72.8466 11.1426 72.7881 11.8474 71.8524C12.1575 71.4431 12.6931 69.8348 13.0314 68.2851C13.5107 65.9458 14.9484 60.2439 15.7942 57.1152C15.9915 56.4134 16.1325 56.3842 18.5287 56.2087C21.6016 55.9748 23.6032 55.2438 25.7457 53.4601C30.0308 49.9805 32.3143 44.6879 33.0472 36.676C33.4701 31.7928 32.8781 22.7575 31.3276 10.7689C31.0175 8.34191 30.7637 6.35355 30.7637 6.32431C30.7637 6.29507 31.4403 6.06115 32.2579 5.82722C38.4881 3.95583 47.453 4.0143 52.8375 5.91494C56.1923 7.1138 58.4194 8.57583 61.0693 11.3537C63.973 14.3655 65.298 16.7047 66.9613 21.7048C67.5251 23.3716 68.3709 25.4769 68.8219 26.3833C71.1336 30.8864 74.9395 33.9274 79.9575 35.331L81.7617 35.8573L81.0288 36.4421C77.7304 39.1322 80.324 46.0038 84.9474 46.764C85.5676 46.881 86.1314 47.1734 86.2441 47.4073C86.4979 48.1383 85.7649 50.4191 84.5245 52.6999C82.241 56.8813 78.4634 60.1562 74.0937 61.706C71.8948 62.4954 71.5283 62.5247 66.7076 62.5247C60.9284 62.5247 58.9832 62.203 53.3731 60.2732C49.5673 58.9573 48.778 58.9866 48.2423 60.4778C47.7913 61.7352 48.3269 62.6124 50.1311 63.4896L51.7662 64.2791L51.7944 68.8114C51.7944 76.5309 52.5556 79.0456 54.8391 79.0456C55.6002 79.0456 56.7279 78.4608 56.6997 78.0807C56.6997 78.0514 56.5024 76.4432 56.2768 74.5133C55.7976 70.6536 55.713 65.8874 56.1077 65.8874C56.2486 65.8874 57.4045 66.1213 58.7013 66.3844C62.1406 67.1155 71.6129 67.1155 74.1783 66.3844C80.7187 64.5423 86.2723 59.7176 89.5425 53.0215C91.0367 49.9805 91.7133 47.4658 92.2207 43.2552C92.6154 39.8632 92.1925 38.1965 90.3601 36.0912C88.6404 34.1321 87.4 33.4011 83.425 32.1437C81.5926 31.5589 79.2527 30.6232 78.2378 30.0677C74.2629 27.9038 72.9097 26.0909 70.9081 20.1551C68.7938 13.8391 66.9049 10.5934 63.4656 7.34773C58.363 2.4938 51.2024 0.0375891 42.4913 0.125311C40.2924 0.154551 38.2062 0.24227 37.8116 0.300752Z" fill="white"/>
<path d="M93.461 3.60494C92.5589 3.98506 91.6849 5.30089 91.2621 6.93836C90.2472 10.8858 87.71 27.6699 87.71 30.5647C87.71 30.9156 88.3302 31.4127 89.4578 31.9975C91.6286 33.1379 91.7695 32.9917 92.0514 29.5706C92.4743 24.2195 94.8424 9.45305 95.2934 9.45305C95.378 9.45305 98.2253 12.5526 101.636 16.3246C105.019 20.0966 108.008 23.1961 108.261 23.1961C108.543 23.1961 109.868 22.7867 111.25 22.3189C115.112 20.9738 118.1 20.4475 122.244 20.4767C126.501 20.506 128.728 20.8276 132.872 22.085C134.62 22.6113 136.143 22.9037 136.537 22.816C136.904 22.699 139.807 19.6873 143.219 15.886C147.278 11.3537 149.336 9.24837 149.477 9.51153C149.787 10.1548 151.366 18.7223 151.845 22.4651C152.099 24.395 152.353 27.4945 152.465 29.3366C152.606 32.4069 152.719 32.9332 153.678 35.1848C155.172 38.6644 155.651 41.2083 155.651 45.3897V48.8986L154.185 49.0448C153.367 49.1325 151.563 49.2787 150.154 49.3664C148.772 49.4834 147.475 49.6881 147.278 49.8635C146.827 50.2436 146.799 51.0916 147.194 51.8811C147.475 52.3782 147.842 52.4367 151.422 52.4367H155.341L154.749 54.1911C154.439 55.1561 154.072 55.9456 153.931 55.9456C153.762 55.9456 152.55 55.6239 151.197 55.2438C145.446 53.5771 139.103 52.4952 138.144 53.0507C137.524 53.3724 137.411 54.7175 137.975 55.4192C138.201 55.7116 139.413 56.0333 141.555 56.3549C144.797 56.852 151.62 58.4602 152.268 58.8696C152.522 59.0158 152.409 59.3959 151.845 60.3024C151.422 60.9457 150.999 61.5013 150.887 61.5013C150.802 61.5013 148.49 60.7118 145.784 59.7468C140.23 57.7585 139.272 57.6415 138.567 58.7234C138.144 59.3959 138.144 59.5129 138.567 60.1854C138.849 60.5948 139.497 61.0334 140.202 61.2089C142.345 61.8229 148.462 63.899 148.688 64.1037C149.28 64.6885 145.079 68.5775 141.471 70.8582C129.715 78.2269 111.842 77.0865 100.424 68.1973C98.3663 66.6184 95.378 63.6651 95.6317 63.4896C95.6881 63.4311 98.028 62.6124 100.819 61.6767C103.61 60.741 106.119 59.7761 106.401 59.5129C106.965 59.0158 107.049 57.7 106.542 57.1737C105.95 56.5596 104.878 56.7935 99.2966 58.7234C95.0397 60.2147 93.7429 60.5363 93.4328 60.2732C93.2354 60.0977 92.6434 59.2497 92.136 58.3725C91.6567 57.5245 91.1493 56.8228 91.0083 56.8228C90.8956 56.8228 90.3036 57.6123 89.6833 58.6064C88.3584 60.7118 88.3865 60.8287 90.7546 64.0744C95.378 70.5074 101.665 75.2736 108.684 77.7005C113.533 79.3672 116.099 79.7474 122.667 79.7766C129.433 79.7766 131.237 79.5135 136.453 77.7005C144.036 75.0981 150.351 70.1272 154.749 63.2557C155.623 61.8814 156.356 60.741 156.384 60.6825C156.384 60.6533 157.737 61.2381 159.4 61.9691C162.614 63.4311 163.544 63.4896 164.136 62.3492C164.306 62.0276 164.362 61.4135 164.249 61.0042C164.108 60.3316 162.614 59.4544 158.696 57.7585L157.963 57.4368L158.639 55.4485C159.006 54.3666 159.316 53.1677 159.316 52.8461C159.316 52.115 160.331 51.8519 163.291 51.8519C165.349 51.8519 166.194 51.2963 166.025 50.0682C165.884 48.9278 164.841 48.6062 162.219 48.8109L159.908 48.9863L159.88 45.3897C159.88 40.9451 159.175 37.2024 157.793 34.0736C156.891 31.9975 156.779 31.4712 156.497 27.436C155.989 20.3305 153.931 7.26001 153.001 5.41785C152.409 4.21899 151.225 3.31253 150.295 3.31253C149.872 3.31253 149.026 3.69266 148.434 4.16051C147.306 5.00848 141.809 10.7689 137.609 15.4766L135.212 18.1667L132.027 17.3188C124.838 15.4181 117.395 15.6813 110.094 18.079C109.586 18.2545 108.487 17.1726 103.074 11.2367C96.0546 3.54646 95.1807 2.87392 93.461 3.60494Z" fill="white"/>
<path d="M53.7396 26.7342C50.4976 27.7576 49.7083 32.5823 52.471 34.5999C55.3747 36.7345 59.2369 34.6584 59.2369 30.9741C59.2369 29.0442 58.4758 27.7284 56.897 26.9974C55.6002 26.3833 55.0082 26.3249 53.7396 26.7342Z" fill="white"/>
<path d="M102.482 40.5943C101.947 41.4422 102.088 42.261 102.99 43.6645C104.822 46.4424 108.177 47.3488 111.193 45.8576C113.843 44.571 115.253 42.144 114.041 40.9159C113.364 40.2141 112.857 40.3311 111.475 41.6177C110.771 42.261 109.784 42.8458 109.248 42.9627C107.5 43.3136 106.852 42.9335 104.794 40.4188C104.146 39.6293 103.046 39.717 102.482 40.5943Z" fill="white"/>
<path d="M139.356 41.1791C137.073 43.3136 135.212 43.2844 132.731 41.1498C131.745 40.3018 130.42 40.2141 129.997 41.0036C129.461 42.0563 129.715 42.7288 131.125 44.0446C134.254 46.9687 138.257 46.9979 141.161 44.1031C142.176 43.1089 142.401 42.6996 142.401 41.8224C142.401 41.0621 142.232 40.682 141.865 40.4481C140.963 39.951 140.484 40.0972 139.356 41.1791Z" fill="white"/>
<path d="M118.382 49.4834C117.536 50.1852 117.142 51.6764 117.424 52.8753C117.536 53.2847 118.298 54.4251 119.143 55.3608C120.356 56.7351 120.694 57.3199 120.694 58.0801C120.694 59.8346 119.172 61.2089 117.17 61.2089C115.958 61.2089 115.225 60.858 114.013 59.6591C113.195 58.8696 112.969 58.7819 112.321 59.0451C111.701 59.2497 111.504 59.5422 111.447 60.3024C111.363 61.0919 111.532 61.5013 112.293 62.2908C115.027 65.3025 119.369 65.478 121.934 62.7001L122.724 61.8522L123.964 62.8463C126.445 64.7762 129.123 64.8055 131.886 62.8756C133.605 61.6767 134.169 60.6533 133.718 59.6299C133.295 58.6357 132.309 58.6357 130.871 59.6006C128.7 61.0919 126.67 61.0919 125.486 59.5421C124.584 58.314 124.753 57.0275 126.022 55.5654C127.291 54.1034 128.024 52.7291 128.024 51.7349C128.024 49.6881 126.952 49.1618 122.526 48.9863C119.397 48.8693 119.087 48.9278 118.382 49.4834Z" fill="white"/>
<path d="M94.786 50.9454C94.053 51.7057 94.0248 52.4952 94.7014 53.1092C95.2088 53.5771 103.384 55.3607 105.076 55.3607C105.583 55.3607 106.203 55.1561 106.429 54.8929C107.021 54.2788 106.993 53.1092 106.401 52.7876C105.809 52.4659 101.411 51.4425 98.7045 50.9747C97.6897 50.7992 96.5338 50.5945 96.1109 50.5068C95.5753 50.3898 95.1806 50.5361 94.786 50.9454Z" fill="white"/>
</svg>
